<svg width="72px" height="86px" viewBox="0 0 72 86" version="1.1"
  xmlns="http://www.w3.org/2000/svg"
  xmlns:xlink="http://www.w3.org/1999/xlink">
  <defs>
    <linearGradient x1="79.3548141%" y1="81.4735701%" x2="33.8916291%" y2="42.4813902%" id="linearGradient-op098301az-1">
      <stop stop-color="#FAFCFF" stop-opacity="0.8" offset="0%"></stop>
      <stop stop-color="#F1F6FF" offset="100%"></stop>
    </linearGradient>
    <linearGradient x1="45.3755353%" y1="20.1593216%" x2="59.4939925%" y2="92.0081786%" id="linearGradient-op098301az-2">
      <stop stop-color="#55F1FE" offset="0%"></stop>
      <stop stop-color="#3878FF" offset="100%"></stop>
    </linearGradient>
    <filter x="-104.5%" y="-65.0%" width="309.1%" height="229.9%" filterUnits="objectBoundingBox" id="filter-op098301az-3">
      <feGaussianBlur stdDeviation="8" in="SourceGraphic"></feGaussianBlur>
    </filter>
    <path d="M42.4780689,19.9470861 C43.5826384,19.9470861 44.4780689,20.8425166 44.4780689,21.9470861 L44.4774757,33.3240861 L54.749666,39.2556434 C55.6606996,39.7816289 56.0013614,40.9161368 55.5546552,41.8493268 L55.4817169,41.9876942 L55.444255,42.05258 C54.8919703,43.0091652 53.6687895,43.3369155 52.7122042,42.7846308 L52.7122042,42.7846308 L42.5844757,36.9370861 L32.4582714,42.7846308 C31.5016862,43.3369155 30.2785054,43.0091652 29.7262206,42.05258 L29.6887588,41.9876942 C29.1364741,41.031109 29.4642244,39.8079281 30.4208096,39.2556434 L40.4024757,33.4920861 L40.4031453,21.9470861 C40.4031453,20.8425166 41.2985758,19.9470861 42.4031453,19.9470861 L42.4780689,19.9470861 Z" id="path-op098301az-4"></path>
    <filter x="-26.6%" y="-21.6%" width="153.2%" height="160.6%" filterUnits="objectBoundingBox" id="filter-op098301az-5">
      <feOffset dx="0" dy="2" in="SourceAlpha" result="shadowOffsetOuter1"></feOffset>
      <feGaussianBlur stdDeviation="2" in="shadowOffsetOuter1" result="shadowBlurOuter1"></feGaussianBlur>
      <feColorMatrix values="0 0 0 0 0.400629428   0 0 0 0 0.722619396   0 0 0 0 0.784689751  0 0 0 0.3 0" type="matrix" in="shadowBlurOuter1"></feColorMatrix>
    </filter>
  </defs>
  <g id="页面-1" stroke="none" stroke-width="1" fill="none" fill-rule="evenodd">
    <g id="AntD-Mobile-Home-修改稿" transform="translate(-536.000000, -660.000000)">
      <g id="编组" transform="translate(144.000000, 647.000000)">
        <g id="Group-25" transform="translate(326.000000, 22.174348)">
          <g id="编组-11" transform="translate(68.250000, 0.000000)">
            <path d="M26.25,1.15470054 L43.251116,10.9702995 C44.4887203,11.6848306 45.251116,13.0053387 45.251116,14.4344011 L45.251116,34.0655989 C45.251116,35.4946613 44.4887203,36.8151694 43.251116,37.5297005 L26.25,47.3452995 C25.0123957,48.0598306 23.4876043,48.0598306 22.25,47.3452995 L5.24888396,37.5297005 C4.01127965,36.8151694 3.24888396,35.4946613 3.24888396,34.0655989 L3.24888396,14.4344011 C3.24888396,13.0053387 4.01127965,11.6848306 5.24888396,10.9702995 L22.25,1.15470054 C23.4876043,0.440169359 25.0123957,0.440169359 26.25,1.15470054 Z" id="多边形" fill="#3878FF"></path>
            <path d="M44.25,8.15470054 L63.8491923,19.4702995 C65.0867966,20.1848306 65.8491923,21.5053387 65.8491923,22.9344011 L65.8491923,45.5655989 C65.8491923,46.9946613 65.0867966,48.3151694 63.8491923,49.0297005 L44.25,60.3452995 C43.0123957,61.0598306 41.4876043,61.0598306 40.25,60.3452995 L20.6508077,49.0297005 C19.4132034,48.3151694 18.6508077,46.9946613 18.6508077,45.5655989 L18.6508077,22.9344011 C18.6508077,21.5053387 19.4132034,20.1848306 20.6508077,19.4702995 L40.25,8.15470054 C41.4876043,7.44016936 43.0123957,7.44016936 44.25,8.15470054 Z" id="多边形备份" fill="#BED8FE"></path>
            <path d="M44.25,8.15470054 L63.8491923,19.4702995 C65.0867966,20.1848306 65.8491923,21.5053387 65.8491923,22.9344011 L65.8491923,45.5655989 C65.8491923,46.9946613 65.0867966,48.3151694 63.8491923,49.0297005 L44.25,60.3452995 C43.0123957,61.0598306 41.4876043,61.0598306 40.25,60.3452995 L20.6508077,49.0297005 C19.4132034,48.3151694 18.6508077,46.9946613 18.6508077,45.5655989 L18.6508077,22.9344011 C18.6508077,21.5053387 19.4132034,20.1848306 20.6508077,19.4702995 L40.25,8.15470054 C41.4876043,7.44016936 43.0123957,7.44016936 44.25,8.15470054 Z" id="多边形备份" fill="url(#linearGradient-op098301az-1)"></path>
            <path d="M44.25,8.15470054 L63.8491923,19.4702995 C65.0867966,20.1848306 65.8491923,21.5053387 65.8491923,22.9344011 L65.8491923,45.5655989 C65.8491923,46.9946613 65.0867966,48.3151694 63.8491923,49.0297005 L44.25,60.3452995 C43.0123957,61.0598306 41.4876043,61.0598306 40.25,60.3452995 L20.6508077,49.0297005 C19.4132034,48.3151694 18.6508077,46.9946613 18.6508077,45.5655989 L18.6508077,22.9344011 C18.6508077,21.5053387 19.4132034,20.1848306 20.6508077,19.4702995 L40.25,8.15470054 C41.4876043,7.44016936 43.0123957,7.44016936 44.25,8.15470054 Z" id="多边形备份"></path>
            <path d="M41.6451107,15.3811305 L43.2430775,16.3039491 C44.4806818,17.0184802 45.2430775,18.3389883 45.2430775,19.7680507 L45.2430775,38.8063073 C45.2430775,40.2353697 44.4806818,41.5558778 43.2430775,42.2704089 L26.7554636,51.7895373 C25.5178593,52.5040684 23.9930679,52.5040684 22.7554636,51.7895373 L22.2871107,51.5191305 L22.2871107,28.8669195 C22.2871107,27.4378571 23.0495064,26.117349 24.2871107,25.4028178 L41.6451107,15.3811305 Z" id="形状结合" fill="url(#linearGradient-op098301az-2)" filter="url(#filter-op098301az-3)"></path>
            <g id="形状结合">
              <use fill="black" fill-opacity="1" filter="url(#filter-op098301az-5)" xlink:href="#path-op098301az-4"></use>
              <use fill="#FFFFFF" fill-rule="evenodd" xlink:href="#path-op098301az-4"></use>
            </g>
          </g>
        </g>
      </g>
    </g>
  </g>
</svg>