<svg width="71px" height="76px" viewBox="0 0 71 76" version="1.1"
  xmlns="http://www.w3.org/2000/svg"
  xmlns:xlink="http://www.w3.org/1999/xlink">
  <defs>
    <linearGradient x1="69.2657136%" y1="81.4735701%" x2="39.4279944%" y2="42.4813902%" id="linearGradient-9_4djj7wm0-1">
      <stop stop-color="#FAFCFF" stop-opacity="0.8" offset="0%"></stop>
      <stop stop-color="#F1F6FF" offset="100%"></stop>
    </linearGradient>
    <linearGradient x1="43.9203093%" y1="20.1593216%" x2="62.4815609%" y2="92.0081786%" id="linearGradient-9_4djj7wm0-2">
      <stop stop-color="#55F1FE" offset="0%"></stop>
      <stop stop-color="#3878FF" offset="100%"></stop>
    </linearGradient>
    <filter x="-126.2%" y="-89.9%" width="352.4%" height="279.8%" filterUnits="objectBoundingBox" id="filter-9_4djj7wm0-3">
      <feGaussianBlur stdDeviation="8" in="SourceGraphic"></feGaussianBlur>
    </filter>
  </defs>
  <g id="页面-1" stroke="none" stroke-width="1" fill="none" fill-rule="evenodd">
    <g id="AntD-Mobile-Home-修改稿" transform="translate(-1124.000000, -654.000000)">
      <g id="编组" transform="translate(144.000000, 647.000000)">
        <g id="Group-9" transform="translate(920.000000, 16.499967)">
          <g id="盾牌" transform="translate(60.949035, 0.000000)">
            <rect id="矩形" fill="#000000" fill-rule="nonzero" opacity="0" x="4.05096492" y="5.50003344" width="59" height="59"></rect>
            <path d="M26.0346589,39.9946443 L12.717163,46.9960662 C12.2283184,47.253067 11.6236912,47.0651205 11.3666904,46.5762759 C11.2643513,46.3816155 11.2290367,46.1586474 11.2662135,45.9418898 L13.8096289,31.1126401 C13.8652668,30.7882461 13.7577184,30.4572459 13.5220323,30.2275087 L2.74795177,19.7253758 C2.35246819,19.3398746 2.34437588,18.7067613 2.7298771,18.3112778 C2.8833857,18.1537941 3.08452811,18.0513069 3.30216514,18.0196824 L18.1915782,15.8561241 C18.5172884,15.8087956 18.798854,15.6042262 18.944516,15.3090828 L25.6032639,1.81698575 C25.8476862,1.32173209 26.4473121,1.11839309 26.9425657,1.36281539 C27.1397783,1.46014562 27.2994058,1.61977315 27.3967361,1.81698575 L34.055484,15.3090828 C34.201146,15.6042262 34.4827116,15.8087956 34.8084218,15.8561241 L49.6978349,18.0196824 C50.2443797,18.0991001 50.6230612,18.6065429 50.5436436,19.1530878 C50.512019,19.3707248 50.4095319,19.5718672 50.2520482,19.7253758 L39.4779677,30.2275087 C39.2422816,30.4572459 39.1347332,30.7882461 39.1903711,31.1126401 L41.7337865,45.9418898 C41.8271475,46.4862262 41.4615597,47.0031821 40.9172232,47.0965431 C40.7004656,47.13372 40.4774975,47.0984053 40.282837,46.9960662 L26.9653411,39.9946443 C26.6740171,39.8414862 26.3259829,39.8414862 26.0346589,39.9946443 Z" id="星形" fill="#327DFF"></path>
            <rect id="矩形" fill="url(#linearGradient-9_4djj7wm0-1)" x="26.5" y="13.5" width="32" height="39.5" rx="6"></rect>
            <rect id="矩形" fill="url(#linearGradient-9_4djj7wm0-1)" x="26.5" y="13.5" width="32" height="39.5" rx="6"></rect>
            <path d="M32.2877628,15.4722674 L32.9389045,16.7908015 C33.0845665,17.0859449 33.3661321,17.2905143 33.6918422,17.3378428 L45.1022557,18.9958729 C45.6488005,19.0752905 46.027482,19.5827334 45.9480644,20.1292782 C45.9164399,20.3469153 45.8139527,20.5480577 45.656469,20.7015663 L37.3998163,28.7498136 C37.1641302,28.9795507 37.0565817,29.3105509 37.1122197,29.634945 L39.061351,40.9992525 C39.154712,41.543589 38.7891242,42.0605449 38.2447877,42.1539059 C38.0280301,42.1910828 37.805062,42.1557681 37.6104015,42.053429 L27.4046175,36.6879308 C27.2589555,36.6113518 27.0991159,36.5730622 26.9392764,36.5730622 L26.9392764,21.4373039 C26.9392764,18.3437369 29.2805037,15.7969928 32.2877628,15.4722674 Z" id="形状结合" fill="url(#linearGradient-9_4djj7wm0-2)" filter="url(#filter-9_4djj7wm0-3)"></path>
            <rect id="矩形" fill="#FFFFFF" transform="translate(42.803676, 32.857596) rotate(-270.000000) translate(-42.803676, -32.857596) " x="40.7662142" y="25.1273454" width="4.07492364" height="15.4605021" rx="2"></rect>
            <rect id="矩形备份-38" fill="#FFFFFF" transform="translate(41.208885, 24.462538) rotate(-270.000000) translate(-41.208885, -24.462538) " x="39.1714235" y="18.3270779" width="4.07492364" height="12.2709206" rx="2"></rect>
            <rect id="矩形备份-37" fill="#FFFFFF" transform="translate(40.935381, 41.252655) rotate(-270.000000) translate(-40.935381, -41.252655) " x="38.8979189" y="35.3906991" width="4.07492364" height="11.7239114" rx="2"></rect>
          </g>
        </g>
      </g>
    </g>
  </g>
</svg>