<svg width="432px" height="188px" viewBox="0 0 432 188" version="1.1"
  xmlns="http://www.w3.org/2000/svg"
  xmlns:xlink="http://www.w3.org/1999/xlink">
  <defs>
    <linearGradient x1="97.8788231%" y1="56.1403592%" x2="1.7334838%" y2="56.1403592%" id="linearGradient-uk3ihrolha-1">
      <stop stop-color="#2478EF" stop-opacity="0.2" offset="0%"></stop>
      <stop stop-color="#2478EF" offset="100%"></stop>
    </linearGradient>
    <linearGradient x1="0%" y1="83.8870371%" x2="100%" y2="83.8870371%" id="linearGradient-uk3ihrolha-2">
      <stop stop-color="#2478EF" stop-opacity="0.2" offset="0%"></stop>
      <stop stop-color="#2478EF" stop-opacity="0.99756708" offset="99.695885%"></stop>
      <stop stop-color="#2478EF" offset="100%"></stop>
    </linearGradient>
  </defs>
  <g id="页面-1" stroke="none" stroke-width="1" fill="none" fill-rule="evenodd">
    <g id="AntD-Mobile-Home-修改稿" transform="translate(-175.000000, -1193.000000)">
      <g id="编组-29" transform="translate(143.000000, 1036.000000)">
        <g id="编组-6" transform="translate(32.000000, 157.000000)">
          <rect id="矩形" fill="#E6F1FF" x="0" y="0" width="431.276455" height="91.7234178"></rect>
          <rect id="矩形" fill="#E6F1FF" transform="translate(194.471285, 139.790017) scale(1, -1) translate(-194.471285, -139.790017) " x="102.306889" y="91.7234178" width="184.328792" height="96.1331975"></rect>
          <path d="M169.60161,118.182096 L146.403811,141.379628 L168.40061,163.377096 L153.43361,163.377096 L131.43661,141.380208 L154.63561,118.182096 L169.60161,118.182096 Z M235.24261,118.182096 L257.50596,140.444752 L234.57261,163.377096 L219.60561,163.377096 L242.538758,140.445331 L220.27561,118.182096 L235.24261,118.182096 Z M212.551382,136.061722 L212.551382,145.763237 L179.037056,145.763237 L179.037056,136.061722 L212.551382,136.061722 Z" id="形状结合" fill="#3978FF"></path>
          <rect id="矩形" fill="#CFE6FF" x="103.188845" y="15.8752069" width="183.446836" height="5.29173564"></rect>
          <rect id="矩形备份-6" fill="#CFE6FF" x="103.188845" y="29.545524" width="183.446836" height="5.29173564"></rect>
          <rect id="矩形备份-7" fill="#CFE6FF" x="103.188845" y="43.6568191" width="183.446836" height="5.29173564"></rect>
          <rect id="矩形备份-8" fill="#CFE6FF" x="103.188845" y="57.7681141" width="183.446836" height="5.29173564"></rect>
          <rect id="矩形备份-9" fill="#CFE6FF" x="103.188845" y="71.8794092" width="183.446836" height="5.29173564"></rect>
          <rect id="矩形备份-10" fill="#CFE6FF" x="103.188845" y="85.9907042" width="183.446836" height="5.29173564"></rect>
          <rect id="矩形" fill="#FFFFFF" opacity="0.8" x="102.306889" y="0" width="1.76391188" height="187.856615"></rect>
          <rect id="矩形备份" fill="#FFFFFF" opacity="0.8" x="284.871769" y="0" width="1.76391188" height="187.856615"></rect>
          <rect id="矩形备份-2" fill="#86B8F7" x="286.635681" y="86.4316822" width="144.640774" height="101.424933"></rect>
          <rect id="矩形备份-2" fill="url(#linearGradient-uk3ihrolha-1)" x="286.635681" y="1.42108547e-14" width="144.640774" height="86.4316822"></rect>
          <text id="HELLO-ANTD-MOBILE" opacity="0.8" font-family="Helvetica" font-size="24" font-weight="normal" fill="#1276F0">
            <tspan x="300.746976" y="109.990704">HELLO </tspan>
            <tspan x="300.746976" y="138.990704">ANTD </tspan>
            <tspan x="300.746976" y="167.990704">MOBILE</tspan>
          </text>
          <rect id="矩形" fill="#529AFF" x="0" y="15.8752069" width="102.306889" height="21.1669426"></rect>
          <rect id="矩形备份-11" fill="url(#linearGradient-uk3ihrolha-2)" x="0" y="91.2824398" width="102.306889" height="96.5741755"></rect>
          <rect id="矩形" fill="#C6DEFF" x="25.5767223" y="21.1669426" width="51.1534446" height="10.5834713"></rect>
          <g id="设置" transform="translate(21.627939, 112.469401)" fill="#D6E6FB">
            <path d="M53.8465506,29.5255058 C53.8465506,26.0743285 56.0121283,23.1465203 59.0510116,21.9764835 C58.3249202,19.1299295 57.205254,16.448305 55.7417337,13.9853463 C52.7653265,15.3072032 49.1637463,14.7684218 46.7229908,12.3277254 C44.2826487,9.88702898 43.743513,6.28515348 45.065488,3.3088644 C42.6024112,1.84569844 39.9209048,0.726091236 37.0742327,-1.42108547e-14 C35.9043141,3.03888317 32.9763878,5.20410659 29.5255057,5.20410659 C26.0742103,5.20410659 23.146284,3.03888317 21.9763653,-1.42108547e-14 C19.1296933,0.726091293 16.4481869,1.84563941 13.9851101,3.3088644 C15.3070851,6.28515348 14.7680085,9.88702898 12.3276073,12.3277254 C9.88679279,14.7684218 6.28521251,15.3072033 3.3088644,13.9853463 C1.84534412,16.4483049 0.726091236,19.1299295 0,21.9764835 C3.03888317,23.1465203 5.20398846,26.0743285 5.20398846,29.5255058 C5.20398846,32.976683 3.03888317,35.9042551 0,37.074528 C0.726091293,39.921082 1.84575753,42.6027065 3.30886446,45.0656652 C6.28527166,43.7438083 9.88685188,44.2825898 12.3276073,46.7232861 C14.7679494,49.1637464 15.3070852,52.7655628 13.9851102,55.742029 C16.4481869,57.205195 19.1296933,58.3249202 21.9763654,59.0510115 C23.1462841,56.0120102 26.0742104,53.8466687 29.5255058,53.8466687 C32.9763288,53.8466687 35.9042551,56.0120102 37.0742328,59.0510115 C39.920905,58.3249202 42.6024114,57.205254 45.0654881,55.742029 C43.7435131,52.7655037 44.2825898,49.1637463 46.722991,46.7232861 C49.1638054,44.2825897 52.7653266,43.7438083 55.7417338,45.0656652 C57.2048408,42.6027066 58.324507,39.9210821 59.0510116,37.074528 C56.0121283,35.9042551 53.8465506,32.976683 53.8465506,29.5255058 Z M29.5255058,37.6332687 C25.0475494,37.6332687 21.4176247,34.0032849 21.4176247,29.5255058 C21.4176247,25.0477267 25.0476085,21.4177429 29.5255058,21.4177429 C34.0029896,21.4177429 37.6329734,25.0477267 37.6329734,29.5255058 C37.6329734,34.0032849 34.0029896,37.6332687 29.5255058,37.6332687 Z" id="形状"></path>
          </g>
          <g id="盒子full" transform="translate(296.824429, 11.372314)" fill="#D6E6FB">
            <path d="M28.5680731,32.7533717 L28.477074,63.0501345 L54.5887577,47.7652911 L54.5887577,17.4685284 L28.5680731,32.7533717 Z M27.2943788,30.2968359 L53.2240644,15.1029184 L27.2943788,0 L1.36469332,15.1029184 L27.2943788,30.2968359 Z M25.8386864,32.5713736 L0,17.4684552 L0,47.7652179 L25.7476142,62.7771372 L25.8386864,32.5713736 Z" id="形状"></path>
          </g>
        </g>
      </g>
    </g>
  </g>
</svg>