<svg width="432px" height="185px" viewBox="0 0 432 185" version="1.1"
  xmlns="http://www.w3.org/2000/svg"
  xmlns:xlink="http://www.w3.org/1999/xlink">
  <defs>
    <linearGradient x1="193.294879%" y1="50%" x2="17.1292107%" y2="50%" id="linearGradient-9r2vfsx_i7-1">
      <stop stop-color="#58D6F7" stop-opacity="0.1" offset="0%"></stop>
      <stop stop-color="#198DFF" offset="100%"></stop>
    </linearGradient>
    <linearGradient x1="193.294879%" y1="50%" x2="17.1292107%" y2="50%" id="linearGradient-9r2vfsx_i7-2">
      <stop stop-color="#58D6F7" stop-opacity="0" offset="0%"></stop>
      <stop stop-color="#198FFF" stop-opacity="0.5" offset="100%"></stop>
    </linearGradient>
    <linearGradient x1="193.294879%" y1="50%" x2="17.1292107%" y2="50%" id="linearGradient-9r2vfsx_i7-3">
      <stop stop-color="#58D6F7" stop-opacity="0" offset="0%"></stop>
      <stop stop-color="#198FFF" stop-opacity="0.5" offset="100%"></stop>
    </linearGradient>
  </defs>
  <g id="页面-1" stroke="none" stroke-width="1" fill="none" fill-rule="evenodd">
    <g id="AntD-Mobile-Home-修改稿" transform="translate(-768.000000, -1196.000000)">
      <g id="编组-30" transform="translate(736.000000, 1036.000000)">
        <g id="编组-28" transform="translate(32.414980, 160.000000)">
          <rect id="矩形" fill="url(#linearGradient-9r2vfsx_i7-1)" x="131.150235" y="0" width="156.5" height="144.178404"></rect>
          <rect id="矩形备份" fill="#FFFFFF" opacity="0.8" x="133.755869" y="0" width="1.7370892" height="185"></rect>
          <g id="编组-8" opacity="0.9" transform="translate(157.794300, 31.267606)">
            <polygon id="三角形" fill="#FFFFFF" points="57.604761 23.1093224 89.9792211 81.6431925 25.2303009 81.6431925"></polygon>
            <path d="M98.6264554,45.6672396 C98.6264554,24.5252907 82.6326345,7.11889882 62.0842371,4.88730837 M52.3285314,4.98171354 C32.1649359,7.57078635 16.5830667,24.7993427 16.5830667,45.6672396" id="形状" stroke="#FFFFFF" stroke-width="3" stroke-linecap="round"></path>
            <circle id="椭圆形" stroke="#FFFFFF" stroke-width="3" stroke-linecap="round" cx="16.5830667" cy="50.0805076" r="4.41326798"></circle>
            <circle id="椭圆形备份" stroke="#FFFFFF" stroke-width="3" stroke-linecap="round" cx="98.6264554" cy="50.0805076" r="4.41326798"></circle>
            <line x1="9.29109049" y1="4.64554524" x2="52.4946613" y2="4.64554524" id="路径-3" stroke="#FFFFFF" stroke-width="3" stroke-linecap="round"></line>
            <line x1="62.7148608" y1="4.64554524" x2="105.918432" y2="4.64554524" id="路径-3备份" stroke="#FFFFFF" stroke-width="3" stroke-linecap="round"></line>
            <rect id="矩形" stroke="#FFFFFF" stroke-width="3" stroke-linecap="round" x="0" y="0" width="9.29109049" height="9.29109049" rx="1"></rect>
            <rect id="矩形备份-14" stroke="#FFFFFF" stroke-width="3" stroke-linecap="round" x="105.918432" y="0" width="9.29109049" height="9.29109049" rx="1"></rect>
            <rect id="矩形备份-15" stroke="#FFFFFF" stroke-width="3" stroke-linecap="round" x="52.4946613" y="0" width="9.29109049" height="9.29109049" rx="1"></rect>
          </g>
          <rect id="矩形" fill="#9EDDFF" transform="translate(283.145540, 165.457746) scale(1, -1) translate(-283.145540, -165.457746) " x="135.492958" y="145.915493" width="295.305164" height="39.084507"></rect>
          <rect id="矩形" fill="#E0F2FE" x="178.485915" y="160.680751" width="213.661972" height="9.55399061" rx="4.77699531"></rect>
          <path d="M183.262911,160.680751 L253.180751,160.680751 L253.180751,160.680751 L253.180751,170.234742 L183.262911,170.234742 C180.624649,170.234742 178.485915,168.096008 178.485915,165.457746 C178.485915,162.819485 180.624649,160.680751 183.262911,160.680751 Z" id="矩形" fill="#198FFF"></path>
          <rect id="矩形" fill="#DFF6FF" x="289.225352" y="0" width="141.57277" height="144.178404"></rect>
          <polygon id="矩形备份" fill="#FFFFFF" opacity="0.8" transform="translate(283.145540, 145.046948) rotate(-270.000000) translate(-283.145540, -145.046948) " points="282.276995 -2.6056338 284.014085 -2.6056338 284.014085 292.699531 282.276995 292.699531"></polygon>
          <rect id="矩形备份-13" fill="#FFFFFF" opacity="0.8" x="287.488263" y="0" width="1.7370892" height="144.178404"></rect>
          <g id="编组-7">
            <rect id="矩形" fill="#DFF6FF" x="0" y="0" width="133.755869" height="185"></rect>
            <rect id="矩形" fill="url(#linearGradient-9r2vfsx_i7-2)" x="8.68544601" y="33.8732394" width="116.384977" height="59.0610329"></rect>
            <path d="M20.1504671,92.9342723 L42.9041773,51.6400856 L63.8414671,87.6720516 L93.9661018,39.9530516 L124.751403,92.9342723 L20.1504671,92.9342723 Z M54.1343921,51.4655026 C57.3134677,51.4655026 59.8906176,48.8883527 59.8906176,45.7092771 C59.8906176,42.5302016 57.3134677,39.9530516 54.1343921,39.9530516 C50.9553166,39.9530516 48.3781666,42.5302016 48.3781666,45.7092771 C48.3781666,48.8883527 50.9553166,51.4655026 54.1343921,51.4655026 Z" id="形状结合" fill="#FFFFFF" opacity="0.8"></path>
            <rect id="矩形备份-16" fill="#6FC7F6" x="8.68544601" y="113.779343" width="29.9647887" height="22.5821596"></rect>
            <rect id="矩形备份-19" fill="#6FC7F6" x="8.68544601" y="144.178404" width="29.9647887" height="22.5821596"></rect>
            <rect id="矩形备份-17" fill="#A0DEF8" x="52.1126761" y="113.779343" width="72.9577465" height="5.21126761"></rect>
            <rect id="矩形备份-18" fill="#A0DEF8" x="52.1126761" y="125.070423" width="60.7981221" height="5.21126761"></rect>
            <rect id="矩形备份-21" fill="#A0DEF8" x="52.1126761" y="144.178404" width="72.9577465" height="5.21126761"></rect>
            <rect id="矩形备份-20" fill="#A0DEF8" x="52.1126761" y="155.469484" width="60.7981221" height="5.21126761"></rect>
            <rect id="矩形" fill="#B3E4FE" transform="translate(66.877934, 11.291080) scale(1, -1) translate(-66.877934, -11.291080) " x="0" y="0" width="133.755869" height="22.5821596"></rect>
          </g>
          <path d="M416.114376,54.7183099 C417.218945,54.7183099 418.114376,55.6137404 418.114376,56.7183099 L418.114376,130.018779 C418.114376,131.123349 417.218945,132.018779 416.114376,132.018779 L350.810507,132.018779 C349.705937,132.018779 348.810507,131.123349 348.810507,130.018779 L348.810507,56.7183099 C348.810507,55.6137404 349.705937,54.7183099 350.810507,54.7183099 L416.114376,54.7183099 Z M386.964952,98.0632392 L382.80672,98.0632392 L382.80672,118.790427 C382.80672,120.027235 382.572153,121.008151 382.103019,121.733176 C381.633885,122.458201 380.791577,122.820714 379.576094,122.820714 C379.149608,122.820714 378.765771,122.799389 378.424583,122.756741 C378.197124,122.728309 377.979143,122.699876 377.770639,122.671444 L377.464991,122.628795 L377.464991,126.019354 C377.827504,126.083327 378.232665,126.131306 378.680474,126.163293 C379.128284,126.195279 379.533445,126.211272 379.895958,126.211272 C382.177654,126.211272 383.926244,125.603531 385.141727,124.388047 C386.296436,123.233338 386.902659,121.568633 386.960394,119.393931 L386.964952,119.046318 L386.964952,98.0632392 Z M399.279717,97.7113888 C396.69948,97.7113888 394.742979,98.207178 393.410212,99.1987564 C392.077445,100.190335 391.411062,101.81631 391.411062,104.076683 C391.411062,105.057599 391.512352,105.883914 391.714933,106.555629 C391.917513,107.227343 392.258702,107.803098 392.738498,108.282894 C393.218294,108.76269 393.84736,109.16252 394.625695,109.482384 C395.404031,109.802248 396.379616,110.100788 397.552451,110.378004 C398.469395,110.612571 399.210413,110.831144 399.775506,111.033725 C400.340599,111.236305 400.783078,111.470872 401.102942,111.737426 C401.422806,112.003979 401.641379,112.313181 401.758663,112.665031 C401.875946,113.016882 401.934588,113.448698 401.934588,113.960481 C401.934588,115.090667 401.604062,115.874334 400.94301,116.311481 C400.281957,116.748629 399.183757,116.967202 397.64841,116.967202 C397.051331,116.967202 396.44892,116.940547 395.841179,116.887236 C395.233437,116.833926 394.64702,116.764622 394.081927,116.679325 C393.516833,116.594028 392.989058,116.498068 392.4986,116.391447 C392.106233,116.30615 391.761633,116.214029 391.464799,116.115085 L391.25113,116.039597 L391.25113,119.782006 C391.570994,119.888627 391.965493,119.984586 392.434627,120.069883 C392.903761,120.15518 393.426205,120.240477 394.00196,120.325774 C394.577716,120.411071 395.185457,120.475044 395.825185,120.517693 C396.464913,120.560341 397.115304,120.581666 397.776356,120.581666 C400.676456,120.581666 402.787559,120.032566 404.109663,118.934366 C405.431768,117.836166 406.09282,116.199529 406.09282,114.024453 C406.09282,112.979564 405.99153,112.083945 405.788949,111.337596 C405.586369,110.591246 405.239849,109.951518 404.749391,109.418412 C404.258933,108.885305 403.59255,108.437495 402.750241,108.074983 C401.907933,107.71247 400.836388,107.371282 399.535608,107.051418 C398.661313,106.838175 397.957612,106.635595 397.424505,106.443676 C396.891399,106.251758 396.480907,106.043846 396.193029,105.819941 C395.905151,105.596037 395.718564,105.340145 395.633267,105.052268 C395.54797,104.76439 395.505321,104.407209 395.505321,103.980723 C395.505321,102.871862 395.819854,102.136174 396.44892,101.773662 C397.077986,101.411149 398.064233,101.229893 399.407662,101.229893 C399.876796,101.229893 400.377916,101.251217 400.911023,101.293866 C401.44413,101.336514 401.961243,101.400487 402.462364,101.485784 C402.963484,101.571081 403.427287,101.661709 403.853772,101.757669 C404.19496,101.834436 404.495206,101.914615 404.754509,101.998206 L404.94131,102.061539 L404.94131,98.5110488 C404.365554,98.2978061 403.576557,98.1112188 402.574316,97.9512868 C401.572075,97.7913548 400.473876,97.7113888 399.279717,97.7113888 Z" id="形状结合" fill="url(#linearGradient-9r2vfsx_i7-3)"></path>
          <path d="M349.223689,20.8337169 L349.223689,52.7183099 C349.223689,53.8228794 348.328259,54.7183099 347.223689,54.7183099 L297.305164,54.7183099 C296.200595,54.7183099 295.305164,53.8228794 295.305164,52.7183099 L295.305164,20.8337169 L349.223689,20.8337169 Z M314.702226,30.5223982 L311.109926,30.5223982 L305.803118,45.3355682 L308.558576,45.3355682 L309.905689,41.4081571 L315.82482,41.4081571 L317.131111,45.3355682 L319.968212,45.3355682 L314.702226,30.5223982 Z M326.275149,30.5223982 L321.743951,30.5223982 L321.743951,45.3355682 L324.417766,45.3355682 L324.417766,40.5330275 L326.275149,40.5330275 C327.24126,40.5330275 328.067897,40.4440916 328.755061,40.2662197 C329.442224,40.0883478 330.006923,39.7966379 330.449157,39.39109 C330.891391,38.9855422 331.214562,38.4625988 331.41867,37.8222601 C331.622778,37.1819213 331.724832,36.3921702 331.724832,35.4530066 C331.724832,34.5849919 331.636385,33.83793 331.459491,33.211821 C331.282598,32.5857119 330.983239,32.0734409 330.561416,31.6750079 C330.139593,31.2765749 329.578296,30.984865 328.877525,30.7998783 C328.264351,30.6380149 327.523556,30.5469667 326.65514,30.5267338 L326.275149,30.5223982 Z M337.092872,30.5223982 L334.419057,30.5223982 L334.419057,45.3355682 L337.092872,45.3355682 L337.092872,30.5223982 Z M313.00813,33.0197193 L315.028799,39.0602483 L310.70171,39.0602483 L312.7632,33.0197193 L313.00813,33.0197193 Z M325.948576,32.7849285 C327.077973,32.7849285 327.867191,32.984145 328.316228,33.382578 C328.765266,33.781011 328.989785,34.4853836 328.989785,35.4956959 C328.989785,36.0364264 328.938758,36.4846635 328.836704,36.8404073 C328.73465,37.1961511 328.56456,37.4807461 328.326434,37.6941923 C328.088308,37.9076386 327.775342,38.0570509 327.387537,38.1424294 C326.999732,38.227808 326.520078,38.2704972 325.948576,38.2704972 L324.417766,38.2704972 L324.417766,32.7849285 L325.948576,32.7849285 Z M347.223689,13.8967136 C348.328259,13.8967136 349.223689,14.7921441 349.223689,15.8967136 L349.223689,19.6775497 L295.305164,19.6775497 L295.305164,15.8967136 C295.305164,14.7921441 296.200595,13.8967136 297.305164,13.8967136 L347.223689,13.8967136 Z" id="形状结合" fill="#6FC7F6"></path>
        </g>
      </g>
    </g>
  </g>
</svg>