<svg width="200px" height="132px" viewBox="0 0 200 132" version="1.1"
  xmlns="http://www.w3.org/2000/svg"
  xmlns:xlink="http://www.w3.org/1999/xlink">
  <defs>
    <linearGradient x1="50%" y1="0%" x2="50%" y2="100%" id="linearGradient-9o9m69axib-1">
      <stop stop-color="#F5FAFF" offset="0%"></stop>
      <stop stop-color="#E8F2FE" offset="100%"></stop>
    </linearGradient>
    <rect id="path-9o9m69axib-2" x="0" y="0" width="200" height="132"></rect>
    <linearGradient x1="38.0218759%" y1="23.653511%" x2="74.591002%" y2="87.0892377%" id="linearGradient-9o9m69axib-4">
      <stop stop-color="#55F1FE" offset="0%"></stop>
      <stop stop-color="#3878FF" offset="100%"></stop>
    </linearGradient>
    <filter x="-125.3%" y="-133.3%" width="350.6%" height="366.7%" filterUnits="objectBoundingBox" id="filter-9o9m69axib-5">
      <feGaussianBlur stdDeviation="12" in="SourceGraphic"></feGaussianBlur>
    </filter>
    <linearGradient x1="38.0218759%" y1="23.6527989%" x2="74.591002%" y2="87.0902401%" id="linearGradient-9o9m69axib-6">
      <stop stop-color="#55F1FE" offset="0%"></stop>
      <stop stop-color="#3878FF" offset="100%"></stop>
    </linearGradient>
    <filter x="-124.7%" y="-132.7%" width="349.4%" height="365.4%" filterUnits="objectBoundingBox" id="filter-9o9m69axib-7">
      <feGaussianBlur stdDeviation="8" in="SourceGraphic"></feGaussianBlur>
    </filter>
    <polygon id="path-9o9m69axib-8" points="0 0 69.8702797 0 69.8702797 8.71977538 0 8.71977538"></polygon>
    <polygon id="path-9o9m69axib-10" points="0 0 69.8702797 0 69.8702797 61.0135388 0 61.0135388"></polygon>
    <linearGradient x1="50%" y1="0%" x2="50%" y2="100%" id="linearGradient-9o9m69axib-12">
      <stop stop-color="#EAF3FF" offset="0%"></stop>
      <stop stop-color="#D0E3FF" offset="100%"></stop>
    </linearGradient>
    <polygon id="path-9o9m69axib-13" points="0 0 22.0204571 0 22.0204571 22.9405843 0 22.9405843"></polygon>
    <polygon id="path-9o9m69axib-15" points="0 0 30.0103804 0 30.0103804 23.7586505 0 23.7586505"></polygon>
  </defs>
  <g id="页面-1" stroke="none" stroke-width="1" fill="none" fill-rule="evenodd">
    <g id="AntD-Mobile-Home-修改稿" transform="translate(-471.000000, -1565.000000)">
      <g id="编组备份" transform="translate(143.000000, 1533.000000)">
        <g id="编组-20" transform="translate(328.000000, 32.000000)">
          <mask id="mask-9o9m69axib-3" fill="white">
            <use xlink:href="#path-9o9m69axib-2"></use>
          </mask>
          <use id="矩形" fill="url(#linearGradient-9o9m69axib-1)" xlink:href="#path-9o9m69axib-2"></use>
          <rect id="矩形" fill="#D0E3FF" fill-rule="nonzero" opacity="0.5" mask="url(#mask-9o9m69axib-3)" transform="translate(66.591861, 6.710278) rotate(-315.000000) translate(-66.591861, -6.710278) " x="61.5828319" y="1.71027844" width="10.0180592" height="10" rx="2"></rect>
          <circle id="椭圆形" fill="#D0E3FF" fill-rule="nonzero" mask="url(#mask-9o9m69axib-3)" cx="181.35" cy="26.15" r="7.85"></circle>
          <g id="编组-22" mask="url(#mask-9o9m69axib-3)" fill="url(#linearGradient-9o9m69axib-4)">
            <g transform="translate(173.500000, 104.796957)" id="形状结合">
              <path d="M20.1185971,0 C23.2018905,0 26.1231855,0.693597967 28.7349661,1.93327806 L28.7346392,25.0095371 C28.7346392,26.1087702 27.8427046,27 26.7426019,27 L1.20772184,27.0002458 C0.426264453,24.8533033 0,22.5357299 0,20.1185971 C0,9.00740273 9.00740273,0 20.1185971,0 Z" filter="url(#filter-9o9m69axib-5)"></path>
            </g>
          </g>
          <g id="编组-22备份" mask="url(#mask-9o9m69axib-3)" fill="url(#linearGradient-9o9m69axib-6)">
            <g transform="translate(-13.395390, -5.286944)" id="形状结合">
              <path d="M13.4756641,0 C15.5406492,0 17.4971511,0.464471925 19.2463964,1.2946424 L19.2467867,16.7516711 C19.2467867,17.4879499 18.6493587,18.0849057 17.9124975,18.0849057 L0.808959819,18.0851089 C0.285521869,16.6470517 0,15.0947015 0,13.4756641 C0,6.03326032 6.03326032,0 13.4756641,0 Z" filter="url(#filter-9o9m69axib-7)"></path>
            </g>
          </g>
          <g id="components-intelligent-office-transaction-details-page" mask="url(#mask-9o9m69axib-3)">
            <g transform="translate(86.000000, 11.000000)">
              <g id="分组" stroke="none" stroke-width="1" fill="none" fill-rule="evenodd">
                <g id="Fill-1-Clipped">
                  <mask id="mask-9o9m69axib-9" fill="white">
                    <use xlink:href="#path-9o9m69axib-8"></use>
                  </mask>
                  <g id="path-1"></g>
                  <path d="M69.8702797,8.71977538 L-6.14792441e-05,8.71977538 L-6.14792441e-05,2.45913902 C-6.14792441e-05,1.10106252 1.10103178,-3.0739622e-05 2.45910828,-3.0739622e-05 L67.4111099,-3.0739622e-05 C68.7692889,-3.0739622e-05 69.8702797,1.10106252 69.8702797,2.45913902 L69.8702797,8.71977538 Z" id="Fill-1" fill="#253369" fill-rule="nonzero" mask="url(#mask-9o9m69axib-9)"></path>
                </g>
              </g>
              <g id="分组" stroke="none" stroke-width="1" fill="none" fill-rule="evenodd" transform="translate(0.000000, 7.986461)">
                <g id="Fill-3-Clipped">
                  <mask id="mask-9o9m69axib-11" fill="white">
                    <use xlink:href="#path-9o9m69axib-10"></use>
                  </mask>
                  <g id="path-3"></g>
                  <path d="M67.4111099,61.0135388 L2.45910828,61.0135388 C1.10103178,61.0135388 -6.14792441e-05,59.912548 -6.14792441e-05,58.554369 L-6.14792441e-05,0 L69.8702797,0 L69.8702797,58.554369 C69.8702797,59.912548 68.7692889,61.0135388 67.4111099,61.0135388" id="Fill-3" fill="#E4EBF7" fill-rule="nonzero" mask="url(#mask-9o9m69axib-11)"></path>
                </g>
              </g>
              <path d="M5.67810002,4.05794775 C5.67810002,4.91025501 4.98707332,5.60128171 4.1346636,5.60128171 C3.28235635,5.60128171 2.59143211,4.91025501 2.59143211,4.05794775 C2.59143211,3.2056405 3.28235635,2.51461379 4.1346636,2.51461379 C4.98707332,2.51461379 5.67810002,3.2056405 5.67810002,4.05794775" id="Fill-5" stroke="none" fill="#FF7946" fill-rule="nonzero"></path>
              <path d="M11.4416767,4.05794775 C11.4416767,4.91025501 10.7507525,5.60128171 9.89834273,5.60128171 C9.04603548,5.60128171 8.35511124,4.91025501 8.35511124,4.05794775 C8.35511124,3.2056405 9.04603548,2.51461379 9.89834273,2.51461379 C10.7507525,2.51461379 11.4416767,3.2056405 11.4416767,4.05794775" id="Fill-7" stroke="none" fill="#FFC53D" fill-rule="nonzero"></path>
              <path d="M17.2053558,4.05794775 C17.2053558,4.91025501 16.5144316,5.60128171 15.6620219,5.60128171 C14.8097146,5.60128171 14.1187904,4.91025501 14.1187904,4.05794775 C14.1187904,3.2056405 14.8097146,2.51461379 15.6620219,2.51461379 C16.5144316,2.51461379 17.2053558,3.2056405 17.2053558,4.05794775" id="Fill-9" stroke="none" fill="#BAE637" fill-rule="nonzero"></path>
              <path d="M7.55169094,60.7008246 C7.12781818,60.7008246 6.7843268,60.3575089 6.7843268,59.934067 L6.7843268,15.4839767 C6.7843268,15.0605348 7.12781818,14.7172191 7.55169094,14.7172191 L63.081997,14.7172191 C63.5057739,14.7172191 63.8493612,15.0605348 63.8493612,15.4839767 L63.8493612,59.934067 C63.8493612,60.3575089 63.5057739,60.7008246 63.081997,60.7008246 L7.55169094,60.7008246 Z" id="Fill-11" stroke="none" fill="#FFFFFF" fill-rule="nonzero"></path>
              <path d="M7.55169094,60.7008246 C7.12781818,60.7008246 6.7843268,60.3575089 6.7843268,59.934067 L6.7843268,15.4839767 C6.7843268,15.0605348 7.12781818,14.7172191 7.55169094,14.7172191 L63.081997,14.7172191 C63.5057739,14.7172191 63.8493612,15.0605348 63.8493612,15.4839767 L63.8493612,59.934067 C63.8493612,60.3575089 63.5057739,60.7008246 63.081997,60.7008246 L7.55169094,60.7008246 Z" id="Fill-11" stroke="none" fill="#FFFFFF" fill-rule="nonzero"></path>
              <line x1="14.1187904" y1="25.4709738" x2="14.1187904" y2="40.3891143" id="路径-4" stroke="#BCCFF6" stroke-width="1" fill="none"></line>
              <path d="M23.4224511,21.0128767 C22.8469029,21.0128767 22.3761768,20.5420482 22.3761768,19.9666024 C22.3761768,19.3910542 22.8469029,18.9203282 23.4224511,18.9203282 L54.1679734,18.9203282 C54.7434191,18.9203282 55.2142477,19.3910542 55.2142477,19.9666024 C55.2142477,20.5420482 54.7434191,21.0128767 54.1679734,21.0128767 L23.4224511,21.0128767 Z" id="Fill-1" stroke="none" fill="#CED7EC" fill-rule="nonzero"></path>
              <path d="M23.4224511,41.0554923 C22.8469029,41.0554923 22.3761768,40.5846637 22.3761768,40.009218 C22.3761768,39.4336698 22.8469029,38.9629438 23.4224511,38.9629438 L54.9340519,38.9629438 C55.5094977,38.9629438 55.9803262,39.4336698 55.9803262,40.009218 C55.9803262,40.5846637 55.5094977,41.0554923 54.9340519,41.0554923 L23.4224511,41.0554923 Z" id="Fill-1备份" stroke="none" fill="#CED7EC" fill-rule="nonzero"></path>
              <circle id="椭圆形" stroke="none" fill="#4C85FE" fill-rule="evenodd" cx="14.1187904" cy="22.4339028" r="3.99007837"></circle>
              <polyline id="路径-5" stroke="#FFFFFF" stroke-width="1" fill="none" points="11.9635432 22.2470334 13.4353627 23.7188529 16.5219282 20.6322875"></polyline>
              <circle id="椭圆形备份-2" stroke="none" fill="#4C85FE" fill-rule="evenodd" cx="14.1187904" cy="42.9530221" r="3.99007837"></circle>
              <polyline id="路径-5备份" stroke="#FFFFFF" stroke-width="1" fill="none" points="11.9635432 42.6532254 13.4353627 44.1250449 16.5219282 41.0384795"></polyline>
              <path d="M28.6541298,25.9474775 L23.4225535,25.9474775 C22.8447511,25.9474775 22.3761768,25.4790056 22.3761768,24.9012032 C22.3761768,24.3232983 22.8447511,23.8549289 23.4225535,23.8549289 L28.6541298,23.8549289 C29.2320347,23.8549289 29.7004041,24.3232983 29.7004041,24.9012032 C29.7004041,25.4790056 29.2320347,25.9474775 28.6541298,25.9474775" id="Fill-3" stroke="none" fill="#CED7EC" fill-rule="nonzero"></path>
              <path d="M28.6541298,45.9900931 L23.4225535,45.9900931 C22.8447511,45.9900931 22.3761768,45.5216212 22.3761768,44.9438188 C22.3761768,44.3659139 22.8447511,43.8975445 23.4225535,43.8975445 L28.6541298,43.8975445 C29.2320347,43.8975445 29.7004041,44.3659139 29.7004041,44.9438188 C29.7004041,45.5216212 29.2320347,45.9900931 28.6541298,45.9900931" id="Fill-3备份" stroke="none" fill="#CED7EC" fill-rule="nonzero"></path>
            </g>
          </g>
          <path d="M139.216917,90.2466165 L142.900693,97.0474337 C143.426781,98.0186728 143.065915,99.2324961 142.094676,99.7585839 C141.802172,99.9170234 141.474767,100 141.142109,100 L133.774557,100 C132.669988,100 131.774557,99.1045695 131.774557,98 C131.774557,97.6673418 131.857534,97.3399373 132.015973,97.0474337 L135.699749,90.2466165 C136.225837,89.2753774 137.439661,88.914511 138.4109,89.4405989 C138.752069,89.6253988 139.032117,89.9054473 139.216917,90.2466165 Z" id="三角形" fill="url(#linearGradient-9o9m69axib-12)" fill-rule="nonzero" opacity="0.7" mask="url(#mask-9o9m69axib-3)" transform="translate(137.458333, 93.500000) rotate(-330.000000) translate(-137.458333, -93.500000) "></path>
          <g id="product-manager-standing-say-hello" mask="url(#mask-9o9m69axib-3)">
            <g transform="translate(22.104610, 27.000000)">
              <path d="M59.5907318,30.2955558 L63.0541096,21.1935083 C63.0541096,21.1935083 68.047373,14.0004091 69.5686231,14.6035458 C70.9635189,15.3666707 67.492869,17.2456213 66.6538407,19.3286475 C68.043737,19.3513731 67.2356155,21.3507692 67.2356155,21.3507692 C67.2356155,21.3507692 68.3387149,21.4071287 67.8955662,23.0551874 C68.8632212,23.7492265 67.8760222,25.5981793 67.8760222,25.5981793 C67.8760222,25.5981793 65.378936,30.477815 62.8095824,33.6530324 C62.8095824,33.6530324 58.7826104,36.2323852 59.5907318,30.2955558" id="Fill-1" fill="#FFC999" fill-rule="nonzero"></path>
              <path d="M60.0008376,26.2841736 C60.0008376,26.2841736 60.6771507,23.1175919 61.1152998,21.5127117 C61.5539034,19.9078315 61.12439,16.9016924 62.2447609,17.7870808 C62.998341,18.3820364 62.7047266,20.1219065 62.5624645,21.4113556 C62.4197478,22.7008048 64.2368849,25.946926 62.4947422,27.9304143 C61.3180119,29.2698597 59.6445005,29.3121293 60.0008376,26.2841736" id="Fill-3" fill="#FFC999" fill-rule="nonzero"></path>
              <path d="M53.0269493,46.4304873 C53.0269493,46.4304873 56.8902971,51.1151375 52.304276,54.7116871 C47.6282615,58.3791405 43.9144479,53.4808699 43.9144479,53.4808699 C43.9144479,53.4808699 41.1673803,50.2556562 37.9748915,46.241865 C35.4805323,43.1057356 33.5534035,40.7090964 32.1585076,38.5438035 C30.65362,36.2080689 31.0222288,33.0728484 33.1702503,31.3884288 C36.4340974,28.8286199 39.2766124,29.6508313 41.0996581,31.731585 C42.8727075,33.7550702 45.1761719,36.5616788 47.0778481,38.8369635 C50.7343932,43.2116368 53.0269493,46.4304873 53.0269493,46.4304873" id="Fill-13" fill="#FFFFFF" fill-rule="nonzero"></path>
              <path d="M44.6642101,47.5369956 C44.6642101,47.5369956 41.6921593,53.0702188 46.2354564,55.7054765 C50.9205611,58.4225463 54.017148,53.2465692 54.017148,53.2465692 C54.017148,53.2465692 56.1065375,49.5500271 58.7013437,45.0062755 C60.2857708,42.2319372 61.9738266,39.1335322 62.876941,36.7082588 C63.8545952,34.0820913 62.661048,33.0730757 60.3893995,31.7554468 C57.6918736,30.1910182 56.4178779,29.8192278 54.6925521,32.0090642 C53.0481295,34.0970901 51.2159936,37.1736786 49.6879259,39.4939598 C46.7749616,43.9172659 44.6642101,47.5369956 44.6642101,47.5369956" id="Fill-15" fill="#FFFFFF" fill-rule="nonzero"></path>
              <polygon id="Fill-17" fill="#FFFFFF" fill-rule="nonzero" points="64.6649438 31.2902088 59.4116997 28.2436182 56.975518 31.573824 62.9846148 35.0590183"></polygon>
              <g id="分组" stroke-width="1" fill="none" fill-rule="evenodd" transform="translate(15.688520, 0.000000)">
                <g id="Fill-19-Clipped">
                  <mask id="mask-9o9m69axib-14" fill="white">
                    <use xlink:href="#path-9o9m69axib-13"></use>
                  </mask>
                  <g id="path-1"></g>
                  <path d="M2.97308653,17.8566211 C2.97308653,17.8566211 -0.32348548,16.194927 0.648714647,12.6756443 C-0.876171481,9.72859169 0.765524106,7.82555198 0.765524106,7.82555198 C0.765524106,7.82555198 0.699619937,3.8944819 3.29488068,3.58814114 C4.80204086,-0.494735782 9.43624025,0.935611951 9.43624025,0.935611951 C9.43624025,0.935611951 12.2883,-1.55374761 16.5884334,1.58829048 C19.6577497,1.59828974 19.6200252,0.0752216555 20.6399491,1.10196316 C21.6594184,2.12870467 22.1811976,4.59261159 20.8990206,5.6116264 C23.1983944,6.51428627 21.249449,10.1853758 21.249449,10.1853758 C21.249449,10.1853758 22.0593885,12.24704 19.4959436,13.9014619 C16.9324986,15.5558838 16.0989245,20.5468747 11.8033362,22.2490204 C7.67046302,23.8861708 3.1930701,22.6921691 2.97308653,17.8566211" id="Fill-19" fill="#253369" fill-rule="nonzero" mask="url(#mask-9o9m69axib-14)"></path>
                </g>
              </g>
              <path d="M21.0116128,25.1678478 L21.276593,18.3760823 L30.2895563,19.2123835 L30.5608997,25.1323959 C30.6822542,27.7753804 28.6005915,29.9983962 25.95488,30.0502105 C25.9048837,30.0511195 25.8539784,30.0524831 25.8035276,30.0533921 C23.0982751,30.107479 20.9061661,27.8717368 21.0116128,25.1678478" id="Fill-21" fill="#FFC999" fill-rule="nonzero"></path>
              <path d="M22.8214776,7.96431435 C22.8214776,7.96431435 23.5018813,10.3250471 21.6911075,11.0268129 C22.2119777,14.0943111 20.8561698,13.912961 20.8561698,13.912961 C20.8561698,13.912961 18.5340705,11.3158822 17.2205322,13.8029693 C15.9724436,16.1659746 18.6122465,19.3534639 20.8211724,18.688968 C24.949046,24.4221763 32.4380322,24.2308269 34.6528668,20.149768 C35.9986754,17.6699532 35.2232788,14.2433909 35.3064544,12.6044224 C35.5114391,8.57608685 34.6946819,7.41390091 34.6946819,7.41390091 C34.6946819,7.41390091 33.1870672,7.83977819 31.4344708,6.6953182 C29.726871,8.14293737 27.0702512,6.99575031 27.0702512,6.99575031 C27.0702512,6.99575031 25.4903692,9.30966843 22.8214776,7.96431435" id="Fill-23" fill="#FFC999" fill-rule="nonzero"></path>
              <path d="M27.1147025,17.3732481 C27.1147025,17.3732481 29.8654061,17.6968603 31.8316229,17.3887015 C31.8316229,17.3887015 31.2748463,19.3521912 29.3104476,19.1099366 C27.5655779,18.8949526 27.1147025,17.3732481 27.1147025,17.3732481" id="Fill-39" fill="#FFFFFF" fill-rule="nonzero"></path>
              <g id="分组" stroke-width="1" fill="none" fill-rule="evenodd" transform="translate(20.288939, 12.893567)">
                <line x1="2.93932596" y1="0.51575" x2="0" y2="0.48425" id="Fill-51" fill="#FFFFFF" fill-rule="nonzero"></line>
              </g>
              <path d="M19.8802427,27.413362 L20.3920227,25.3657876 L31.2948448,25.7343964 L31.7589011,27.82924 C31.7589011,27.82924 40.0019219,29.4654815 40.69687,31.5085107 C41.8963259,35.033702 39.2778851,53.5654999 38.6492956,57.8070014 C40.69687,61.1981118 38.1175172,63.6397476 38.1175172,63.6397476 L15.4555731,63.5656623 C15.4555731,63.5656623 12.8462225,61.8698798 15.0365135,58.3905942 C14.0734036,52.2096921 7.32072605,32.6284271 9.89144317,30.3972301 C11.3431529,29.1368696 13.4139074,28.6541784 15.1246887,28.1892131 C17.6131393,27.5124455 19.8802427,27.413362 19.8802427,27.413362" id="Fill-68" fill="#FFFFFF" fill-rule="nonzero"></path>
              <path d="M10.6963434,33.4568613 C10.7568161,33.3819599 10.8665585,33.3702635 10.9414596,33.4307366 L10.9814648,33.4648616 C11.0132718,33.4930904 11.055182,33.5323644 11.10617,33.5832164 C11.2309637,33.7076771 11.3692692,33.8617807 11.5176217,34.047312 C11.9383291,34.573453 12.3577808,35.2467579 12.7483123,36.0813592 C14.1014733,38.973189 14.7828197,43.0238356 14.4347421,48.4182907 C14.4285434,48.5143571 14.3456412,48.587209 14.249575,48.5810104 C14.1535085,48.5748117 14.0806567,48.4919094 14.0868553,48.3958433 C14.4312972,43.0577328 13.759774,39.0654867 12.4325598,36.2291079 C12.0537596,35.4195768 11.6489274,34.7697393 11.2453508,34.2650224 C11.128562,34.1189652 11.0191062,33.9943517 10.9189543,33.8901386 L10.8599951,33.8300504 C10.7922274,33.7624639 10.7452491,33.7203704 10.7224681,33.7019775 C10.6475667,33.6415048 10.6358703,33.5317623 10.6963434,33.4568613 Z" id="Stroke-70" fill="#597EF7" fill-rule="nonzero"></path>
              <path d="M15.7853667,63.5252562 L38.4473107,63.5993416 L38.5836642,67.0863539 C38.5836642,67.0863539 38.0475821,67.1116774 37.0969055,67.1455419 C38.0991967,67.1216981 38.5255081,67.0979769 38.578015,67.0949134 L38.5836187,67.0945806 C38.5836187,67.0945806 38.6125242,67.24717 38.6745493,67.6203991 L38.6993694,67.7708354 C38.8711828,68.8193616 39.2435663,71.2338571 39.8778528,76.0047491 C42.3757688,83.5766075 45.209875,92.7495381 47.9603821,101.950105 L48.6460243,104.249912 C48.8738292,105.016099 49.1008106,105.781568 49.3267256,106.545407 C49.3267256,106.545407 49.971986,108.646458 48.94691,110.601563 C48.8877054,110.855207 48.8292599,111.108582 48.7707943,111.36196 L48.5021681,112.525539 C48.3230441,113.301043 48.143895,114.075894 47.9650473,114.848741 L47.6970425,116.006342 C43.7708179,132.957509 40.0694623,148.612948 40.0694623,148.612948 L33.1740682,146.658548 L38.1308122,108.336256 L29.8538731,88.0537918 C29.3245885,88.252207 28.7836327,88.4078466 28.2331847,88.5114165 C28.0000451,96.2505505 27.6398893,104.803353 27.2296484,113.155141 C27.2296484,113.155141 27.03739,118.126133 21.825052,118.416112 C16.2129711,118.728588 15.8049818,113.772964 15.7922003,113.595877 L15.7918662,113.591017 L14.1828954,81.9920135 C14.1828954,81.9920135 14.1924172,81.7286019 14.246094,81.2916686 C13.3727965,80.3648853 12.8628122,79.7350003 12.8628122,79.7350003 C13.5209449,72.0505741 14.6176811,68.4603877 15.4657996,67.0104959 L15.4658451,67.0104505 L15.7853667,63.5252562 Z" id="形状结合" fill="#4C85FE" fill-rule="nonzero"></path>
              <path d="M27.6539804,68.470296 L28.8279836,68.4307535 C29.6738295,68.4016648 30.383322,69.0643426 30.4119562,69.910643 L31.0846333,89.7109826 C31.1132675,90.557283 30.4505897,91.2667755 29.6042893,91.2954097 L28.430286,91.3354067 C27.5844401,91.3640409 26.8749476,90.7013632 26.8463134,89.8550627 L26.1736364,70.0547231 C26.1450021,69.2084227 26.8076799,68.4989302 27.6539804,68.470296" id="Fill-112" fill="#4E5C93" fill-rule="nonzero"></path>
              <g id="分组" stroke-width="1" fill="none" fill-rule="evenodd" transform="translate(0.000000, 68.466220)">
                <g id="Fill-114-Clipped">
                  <mask id="mask-9o9m69axib-16" fill="white">
                    <use xlink:href="#path-9o9m69axib-15"></use>
                  </mask>
                  <g id="path-3"></g>
                  <path d="M1.48116212,0.893100192 L27.7523821,0.000894090809 C28.5986825,-0.0277401345 29.308175,0.634937652 29.3368092,1.48078358 L30.0094863,21.2811232 C30.0381205,22.1274236 29.3754427,22.8369161 28.5291423,22.8655503 L2.25746779,23.7577564 C1.41116735,23.7863906 0.702129386,23.1237128 0.673495161,22.2774124 L0.000818120724,2.47707282 C-0.0278161046,1.63122689 0.634861682,0.921734417 1.48116212,0.893100192" id="Fill-114" fill="#253368" fill-rule="nonzero" mask="url(#mask-9o9m69axib-16)"></path>
                </g>
              </g>
              <path d="M13.36682,55.5484428 C13.36682,55.5484428 12.0014674,61.7629787 6.33007275,60.4158066 C0.546413742,59.0427273 2.17356496,52.8086474 2.17356496,52.8086474 C2.17356496,52.8086474 3.05986241,48.4594267 4.30158787,43.2298172 C5.27196995,39.1437587 6.0005519,36.0044477 6.87094145,33.4487295 C7.80905322,30.6916626 10.5315772,28.9254309 13.1877425,29.5562929 C17.2247137,30.5148576 18.3100872,33.3591907 17.769673,36.2067053 C17.2433487,38.9755895 16.4188648,42.689403 15.7711859,45.7287215 C14.5262789,51.571467 13.36682,55.5484428 13.36682,55.5484428" id="Fill-118" fill="#FFFFFF" fill-rule="nonzero"></path>
              <path d="M8.30528889,86.0897075 C8.30528889,86.0897075 6.94448141,81.1359866 8.77116319,79.5583771 C10.4260396,78.1293929 12.534973,79.9937991 12.534973,79.9937991 C12.534973,79.9937991 14.0180441,81.6391308 15.1325063,83.8444207 C15.8633608,85.2893128 17.6614084,87.8295776 17.0223652,88.4022621 C16.1887911,89.14857 14.7738967,86.2515136 13.9616847,86.304237 C12.315444,86.4105927 14.0612227,91.2029621 13.9275963,92.1319836 C13.6653432,93.9482116 9.89244309,92.0442629 8.30528889,86.0897075" id="Fill-120" fill="#FFC999" fill-rule="nonzero"></path>
              <path d="M13.144882,55.6542985 C13.144882,55.6542985 12.194953,49.1938719 6.76990354,49.8110985 C1.17532132,50.4478691 1.79982014,56.6878577 1.79982014,56.6878577 C1.79982014,56.6878577 2.347052,61.0679851 2.99882151,66.4689455 C3.39651909,69.7664265 3.90829905,73.3988825 4.65824305,75.9827805 C5.47000061,78.7802988 7.09215221,78.8825639 9.80467692,78.5739506 C13.0258,78.2076143 14.3197943,77.7281047 14.4016064,74.8310483 C14.4797823,72.0685273 14.1016288,68.364713 13.9389136,65.4812919 C13.6275733,59.9835207 13.144882,55.6542985 13.144882,55.6542985" id="Fill-128" fill="#FFFFFF" fill-rule="nonzero"></path>
              <polygon id="Fill-130" fill="#FFFFFF" fill-rule="nonzero" points="7.1137415 81.6810822 13.3864549 80.9670446 13.3555481 76.677365 6.17972034 77.4941221"></polygon>
            </g>
          </g>
        </g>
      </g>
    </g>
  </g>
</svg>