<?xml version="1.0" encoding="UTF-8"?>
<svg width="116px" height="60px" viewBox="0 0 116 60" version="1.1" xmlns="http://www.w3.org/2000/svg" xmlns:xlink="http://www.w3.org/1999/xlink">
    <title>logo/7</title>
    <g id="logo/7" stroke="none" stroke-width="1" fill="none" fill-rule="evenodd">
        <g id="编组" transform="translate(0.729865, 17.081112)">
            <polygon id="Fill-1" fill="#808F9E" points="95.9475428 4.27517101 114.312496 4.27517101 114.312496 1.65210967 95.9475428 1.65210967"></polygon>
            <polygon id="Fill-2" fill="#808F9E" points="94.9775309 10.862857 94.9775309 13.4859184 100.141034 13.4859184 96.0993507 22.2623472 96.0406167 22.2623472 96.0406167 24.8854085 114.219187 24.8854085 114.219187 22.2623472 114.188646 22.2623472 112.333042 17.7977786 109.26047 17.7977786 111.115682 22.2623472 99.2330065 22.2623472 103.275082 13.4859184 115.270135 13.4859184 115.270135 10.862857"></polygon>
            <path d="M75.4485867,12.2363717 L80.7577506,12.2363717 L80.7577506,9.23976195 L75.4485867,9.23976195 L75.4485867,12.2363717 Z M75.4485867,6.61670061 L80.7577506,6.61670061 L80.7577506,4.27517101 L75.4485867,4.27517101 L75.4485867,6.61670061 Z M83.3671073,6.61670061 L88.5948266,6.61670061 L88.5948266,4.27517101 L83.3671073,4.27517101 L83.3671073,6.61670061 Z M83.3671073,12.2363717 L88.5948266,12.2363717 L88.5948266,9.23976195 L83.3671073,9.23976195 L83.3671073,12.2363717 Z M83.3671073,22.3358822 L83.3671073,19.7876088 L91.2041834,19.7876088 L91.2041834,17.1645475 L83.3671073,17.1645475 L83.3671073,14.859433 L91.2041834,14.859433 L91.2041834,14.1941723 L91.2041834,12.2363717 L91.2041834,9.23976195 L91.2041834,6.61670061 L91.2041834,4.27517101 L91.2041834,3.20582029 L91.2041834,1.65210967 L72.83923,1.65210967 L72.83923,3.20582029 L72.83923,4.27517101 L72.83923,6.61670061 L72.83923,9.23976195 L72.83923,12.2363717 L72.83923,14.1941723 L72.83923,14.859433 L80.7577506,14.859433 L80.7577506,17.1645475 L72.83923,17.1645475 L72.83923,19.7876088 L80.7577506,19.7876088 L80.7577506,22.3358822 L71.8008125,22.3358822 L71.8008125,24.9589435 L92.2429924,24.9589435 L92.2429924,22.3358822 L83.3671073,22.3358822 Z" id="Fill-3" fill="#808F9E"></path>
            <path d="M59.7172668,17.3235209 L61.5070881,17.3235209 L61.5070881,9.18024481 L59.7172668,9.18024481 L59.7172668,17.3235209 Z M64.0964753,19.9465823 L64.1180111,19.9465823 L64.1180111,7.64924469 L64.1176195,7.64924469 L64.1176195,6.55718347 L57.10791,6.55718347 L57.10791,8.13399613 L57.10791,9.18024481 L57.10791,19.9465823 L57.3557676,19.9465823 L59.7172668,19.9465823 L61.5070881,19.9465823 L64.0964753,19.9465823 Z" id="Fill-4" fill="#808F9E"></path>
            <g>
                <path d="M69.1344838,4.27505354 L69.1344838,1.65199221 L56.6582032,1.65199221 L56.6582032,4.27505354 L65.8109213,4.27505354 L65.8109213,20.8689805 C65.7529704,21.7421596 65.5661963,22.3404634 64.3946483,22.4152514 L61.5037599,22.4152514 L61.5037599,25.0383128 L64.2325424,25.0383128 C65.9988702,25.1134923 68.530698,24.9588261 68.4202781,20.8689805 L68.4202781,4.27505354 L69.1344838,4.27505354 Z" id="Fill-5" fill="#808F9E"></path>
                <path d="M6.63342023,3.49385728e-15 L15.8456555,3.49385728e-15 L13.9982748,2.93043604 L7.39500469,4.92660961 C6.33505141,5.24768892 5.37768688,5.83189664 5.38395184,6.93962026 L5.43720402,18.4933851 C5.44190274,19.6011087 6.37812302,20.231129 7.44864843,20.5063958 L13.748851,22.1231476 L15.9192688,25.5692683 L6.63342023,25.5692683 C2.98564602,25.5692683 0,22.6689824 0,19.1253632 L0,6.44390513 C0,2.89989435 2.98564602,3.49385728e-15 6.63342023,3.49385728e-15" id="Fill-9" fill="#808F9E"></path>
                <path d="M34.6361173,3.49385728e-15 L25.4234905,3.49385728e-15 L27.2712627,2.93043604 L33.8741413,4.92660961 C34.9340946,5.24768892 35.8918507,5.83189664 35.8871519,6.93962026 L35.831942,18.4933851 C35.8276348,19.6011087 34.8914145,20.231129 33.8208891,20.5063958 L27.5206866,22.1231476 L25.3502687,25.5692683 L34.6361173,25.5692683 C38.2838915,25.5692683 41.2695375,22.6689824 41.2695375,19.1253632 L41.2695375,6.44390513 C41.2695375,2.89989435 38.2854578,3.49385728e-15 34.6361173,3.49385728e-15" id="Fill-11" fill="#808F9E"></path>
                <polygon id="Fill-13" fill="#808F9E" points="13.862051 14.2536895 27.6798166 14.2536895 27.6798166 11.2069601 13.862051 11.2069601"></polygon>
                <path d="M55.8399992,19.8036237 C55.8450894,19.6133254 55.8458726,19.4140213 55.8399992,19.2002295 L55.8399992,10.8290654 L54.3920098,10.8290654 L55.5463291,1.66851604 L52.9365808,1.66851604 L52.9365808,1.67008228 L48.0240673,1.67008228 L48.0240673,2.67678339 L48.0240673,4.29353518 L48.0240673,24.8594481 L50.6334241,24.8594481 L50.6334241,4.29353518 L52.606104,4.29353518 L51.401665,13.8526927 L53.2306424,13.8526927 L53.2306424,19.1591157 C53.1938358,19.6975109 53.0579644,20.238647 52.3359275,20.2848511 L51.5543735,20.3243986 L51.5755177,22.9047799 L53.2564854,22.9047799 C54.686463,22.8906837 55.7550306,22.4043661 55.8376498,19.8533518 L55.8399992,19.8533518 L55.8399992,19.8036237 Z" id="Fill-7" fill="#808F9E"></path>
                <g></g>
                <g transform="translate(25.350269, 0.000000)"></g>
            </g>
        </g>
    </g>
</svg>