<svg width="96px" height="38px" viewBox="0 0 96 38" version="1.1"
  xmlns="http://www.w3.org/2000/svg"
  xmlns:xlink="http://www.w3.org/1999/xlink">
  <g id="页面-1" stroke="none" stroke-width="1" fill="none" fill-rule="evenodd">
    <g id="AntD-Mobile-Home-修改稿" transform="translate(-1189.000000, -1925.000000)" fill="#7E7C7C" fill-rule="nonzero">
      <g id="谁在使用" transform="translate(143.000000, 1914.000000)">
        <g id="编组-39" transform="translate(1035.462189, 0.000000)">
          <g id="编组-32" transform="translate(10.543171, 11.000000)">
            <path d="M58.6595994,14.4896318 L58.8390527,9.39203818 C58.8777575,8.93321751 58.7138483,8.48042089 58.3904196,8.15268925 C58.0370777,7.85342208 57.5786587,7.70802047 57.1174231,7.74891946 L50.9206784,7.74891946 L50.9206784,9.37521444 L56.9491857,9.37521444 C57.1622864,9.37521444 57.1622864,9.44811732 57.1622864,9.50980437 L56.9828332,14.3942972 L53.3096497,14.3942972 C53.1918835,14.3942972 53.1301965,14.3662577 53.1133727,14.343826 C53.096549,14.3213944 53.1133727,14.2989627 53.1133727,14.2653152 L53.5227504,10.1603224 L51.8403763,10.1603224 L51.4309986,14.3550419 C51.3660666,14.8202807 51.5337649,15.2877397 51.8796317,15.6056066 C52.2291793,15.9120839 52.6899599,16.0602648 53.1526281,16.0149843 L57.7679411,16.0149843 C57.9810419,16.0149843 57.9810419,16.0934951 57.9810419,16.1607901 L57.9810419,18.0730887 L51.4422144,18.0730887 L51.7506497,19.7218153 L57.9586102,19.7218153 L57.9586102,21.9649808 C57.9586102,22.144434 57.8969231,22.1612578 57.8015886,22.1612578 L52.4179914,22.1612578 L52.7656821,23.7875528 L57.9305706,23.7875528 C58.3964697,23.8267577 58.8576709,23.670315 59.2035671,23.3557434 C59.5163829,23.0271588 59.6717922,22.5793354 59.6297685,22.1276103 L59.6297685,16.037416 C59.6722676,15.5797689 59.5076715,15.1271274 59.1811354,14.803675 C59.0343113,14.6595579 58.8556585,14.5519822 58.6595994,14.4896318 Z" id="路径"></path>
            <path d="M49.5074842,19.9405239 L49.8047036,21.499524 L48.0662503,21.5948585 L48.0662503,18.5217218 L48.9747324,18.5217218 C49.4369634,18.5630071 49.8962082,18.4153204 50.2477288,18.1123441 C50.5684632,17.7832216 50.7301687,17.3308587 50.690754,16.8729951 L50.690754,10.9790778 C50.7316956,10.5210179 50.5697696,10.0680352 50.2477288,9.73972884 C49.8962082,9.43675245 49.4369634,9.28906584 48.9747324,9.33035113 L48.0662503,9.33035113 L48.0662503,7.69284032 L46.3838762,7.69284032 L46.3838762,9.33035113 L45.4810021,9.33035113 C45.0183339,9.2850707 44.5575533,9.43325156 44.2080057,9.73972884 C43.8819221,10.0657788 43.7175528,10.5198501 43.7593726,10.9790778 L43.7593726,16.8729951 C43.7175528,17.3322228 43.8819221,17.7862941 44.2080057,18.1123441 C44.5575533,18.4188214 45.0183339,18.5670022 45.4810021,18.5217218 L46.3838762,18.5217218 L46.3838762,21.690193 L43.4453294,21.8584304 L43.4453294,23.4847254 L50.1243547,23.0865636 L50.2533367,23.7819449 L51.9357108,23.7819449 L51.2010741,19.9180923 L49.5074842,19.9405239 Z M48.0662503,10.9678619 L48.806495,10.9678619 C49.0139878,10.9678619 49.0139878,11.0407648 49.0139878,11.1080598 L49.0139878,16.749621 C49.0139878,16.8225239 49.0139878,16.8954268 48.806495,16.8954268 L48.0662503,16.8954268 L48.0662503,10.9678619 Z M46.3838762,16.9066426 L45.6492395,16.9066426 C45.4361388,16.9066426 45.4361388,16.8337397 45.4361388,16.7608368 L45.4361388,11.096844 C45.4361388,11.029549 45.4361388,10.9566461 45.6492395,10.9566461 L46.3838762,10.9566461 L46.3838762,16.9066426 Z" id="形状"></path>
            <polygon id="路径" points="74.5748586 11.9548548 73.9804198 7.69284032 72.2419665 7.69284032 72.8420133 11.9548548"></polygon>
            <path d="M76.0889953,15.448585 C76.9566428,13.2000821 77.4492139,10.8243734 77.5470529,8.41626119 L77.5470529,8.23680795 L75.8646788,8.23680795 L75.8646788,8.41065328 C75.7614231,10.571105 75.3127122,12.7010629 74.5356032,14.7195562 C74.2204143,15.4457079 73.8608272,16.1517708 73.4588838,16.8337397 C73.0569404,16.1517708 72.6973533,15.4457079 72.3821644,14.7195562 C71.6057334,12.7028084 71.1570353,10.5748053 71.0530888,8.41626119 L71.0530888,8.23680795 L69.3426751,8.23680795 L69.3426751,8.41626119 C69.4458951,10.8253181 69.9441557,13.2010573 70.8175564,15.448585 C71.2765017,16.4909105 71.8126132,17.4975238 72.4214198,18.4600347 L69.0005924,23.7034341 L68.2827794,19.9405239 L66.684524,19.9405239 L66.9929592,21.5556031 L66.3087938,21.6004664 L66.3087938,18.5217218 L67.2116679,18.5217218 C67.6743361,18.5670022 68.1351167,18.4188214 68.4846643,18.1123441 C68.8087495,17.7850267 68.9727707,17.3319172 68.9332974,16.8729951 L68.9332974,10.9790778 C68.9735457,10.520054 68.8094097,10.0666279 68.4846643,9.73972884 C68.1351167,9.43325156 67.6743361,9.2850707 67.2116679,9.33035113 L66.3312254,9.33035113 L66.3312254,7.69284032 L64.6488513,7.69284032 L64.6488513,9.33035113 L63.7403693,9.33035113 C63.2781383,9.28906584 62.8188935,9.43675245 62.4673729,9.73972884 C62.1412892,10.0657788 61.97692,10.5198501 62.0187398,10.9790778 L62.0187398,16.8729951 C61.97692,17.3322228 62.1412892,17.7862941 62.4673729,18.1123441 C62.8169205,18.4188214 63.2777011,18.5670022 63.7403693,18.5217218 L64.6488513,18.5217218 L64.6488513,21.690193 L61.7103045,21.8584304 L61.7103045,23.4847254 L67.3182182,23.1650743 L67.4415923,23.8043765 L70.912891,23.8043765 L70.9633622,23.7258657 C70.9633622,23.7258657 71.9447471,22.2678081 73.4757075,20.0078189 C75.006668,22.2509844 75.9880529,23.7258657 75.9880529,23.7258657 L76.0385241,23.8043765 L77.995686,23.8043765 L74.5075637,18.4600347 C75.1098103,17.4974859 75.6384594,16.4908032 76.0889953,15.448585 L76.0889953,15.448585 Z M66.3087938,10.962254 L67.0490384,10.962254 C67.2565312,10.962254 67.2565312,11.0351569 67.2565312,11.1024519 L67.2565312,16.749621 C67.2565312,16.8225239 67.2565312,16.8954268 67.0490384,16.8954268 L66.3312254,16.8954268 L66.3087938,10.962254 Z M64.6488513,16.9178584 L63.9086067,16.9178584 C63.695506,16.9178584 63.695506,16.8393476 63.695506,16.7720527 L63.695506,11.096844 C63.695506,11.029549 63.695506,10.9566461 63.9086067,10.9566461 L64.6488513,10.9566461 L64.6488513,16.9178584 Z" id="形状"></path>
            <path d="M87.0805063,22.1892974 C87.0278544,22.1892974 86.9851718,22.1466146 86.9851718,22.0939628 L86.9851718,12.4315274 L84.4840422,12.4315274 L84.4840422,14.0241749 L85.3084055,14.0241749 L85.3084055,22.3126715 C85.3084055,23.1241288 85.9662215,23.7819449 86.777679,23.7819449 L95.1895496,23.7819449 L95.1895496,22.1892974 L87.0805063,22.1892974 Z" id="路径"></path>
            <path d="M82.4035062,22.0939628 L82.4035062,18.2132865 L84.0241933,18.2132865 L84.0241933,16.620639 L82.4035062,16.620639 L82.4035062,14.0466066 L83.9232509,14.0466066 L83.9232509,12.4315274 L79.5883335,12.4315274 L79.5883335,14.0241749 L80.7099163,14.0241749 L80.7099163,16.5982074 L79.5883335,16.5982074 L79.5883335,18.1908549 L80.7099163,18.1908549 L80.7099163,22.2902398 C80.7099163,23.1016971 81.3677322,23.7595132 82.1791897,23.7595132 L84.1027041,23.7595132 L84.1027041,22.1892974 L82.4764091,22.1892974 C82.4326444,22.1787211 82.402247,22.1389691 82.4035062,22.0939628 L82.4035062,22.0939628 Z" id="路径"></path>
            <polygon id="路径" points="86.8954451 11.2033943 86.2393192 7.77695903 84.5401214 7.77695903 85.1962473 11.2033943"></polygon>
            <polygon id="路径" points="90.7368661 21.6677614 92.4080244 21.6677614 92.4080244 19.6657362 94.8306431 19.6657362 94.8306431 18.0674808 92.4080244 18.0674808 92.4080244 16.0430239 94.8306431 16.0430239 94.8306431 14.4447685 92.4080244 14.4447685 92.4080244 11.9548548 90.7368661 11.9548548 90.7368661 14.4447685 89.6152833 14.4447685 90.3106646 10.8837432 94.8306431 10.8837432 94.8306431 9.29109574 90.6247078 9.29109574 90.9219272 7.77695903 89.2227293 7.77695903 88.9255099 9.29109574 87.4954919 9.29109574 87.4954919 10.8837432 88.6114667 10.8837432 87.6020423 16.0430239 88.2862077 16.0430239 89.3012401 16.0430239 90.7368661 16.0430239 90.7368661 18.0674808 87.4954919 18.0674808 87.4954919 19.6657362 90.7368661 19.6657362"></polygon>
            <polygon id="路径" points="80.9678803 10.8837432 84.1027041 10.8837432 84.1027041 9.29109574 81.2763156 9.29109574 81.5679271 7.77695903 79.8687292 7.77695903 79.0611896 11.9604627 80.7603875 11.9604627"></polygon>
            <g id="Oval-2-Copy-3" transform="translate(4.806667, 1.946239)">
              <path d="M10.671997,33.3880081 C14.0805428,34.6230198 17.7923148,34.7486431 21.2765619,33.7469146 L21.4504073,33.6964434 C21.7308993,33.6132975 21.9457269,33.3868269 22.0139664,33.1023407 C22.082206,32.8178544 21.9934905,32.5185731 21.781238,32.3172328 C21.5689856,32.1158924 21.2654425,32.0430816 20.9849504,32.1262275 L20.8279288,32.1710908 C17.6756323,33.0801052 14.3162914,32.9662291 11.2327884,31.8458318 C10.8069282,31.6909736 10.3361629,31.9106641 10.1813047,32.3365243 C10.0264464,32.7623845 10.2461369,33.2331498 10.671997,33.3880081 L10.671997,33.3880081 Z M28.9650117,29.1147778 L29.1164254,28.9577562 C30.1570398,27.8370296 31.0468724,26.5852312 31.7633606,25.2341015 C35.2660279,18.5917633 34.0561661,10.4450584 28.7743426,5.10729907 C28.4553347,4.78519388 27.9356097,4.78268313 27.6135045,5.10169115 C27.2913993,5.42069917 27.2888886,5.94042412 27.6078966,6.2625293 C33.4824889,12.2061647 33.6186072,21.7270253 27.9163318,27.8361735 L27.7817419,27.9819792 C27.5209359,28.3144709 27.5560112,28.7908243 27.8627051,29.0815293 C28.1693989,29.3722342 28.6469464,29.3817794 28.9650117,29.103562 L28.9650117,29.1147778 Z M20.9849504,0.587320586 C11.9839373,-1.81680467 2.70245695,3.37048951 0.0337846585,12.2966445 C-0.0493612398,12.5771365 0.0234495271,12.8806796 0.224789844,13.0929322 C0.426130161,13.3051847 0.725411638,13.3939002 1.00989782,13.3256606 C1.29438401,13.257421 1.52085469,13.0425934 1.60400051,12.7621013 C1.89415451,11.7919487 2.27922334,10.8527564 2.75362283,9.95814446 C6.1488451,3.51495778 13.5526827,0.281017428 20.5867885,2.16875226 C20.8692841,2.24488585 21.1709375,2.16452657 21.378119,1.95794501 C21.5853004,1.75136345 21.6665338,1.44994427 21.5912197,1.16722913 C21.5159055,0.884514019 21.2954856,0.663454124 21.01299,0.587320586 L20.9849504,0.587320586 Z" id="path-1"></path>
            </g>
            <path d="M28.3712573,9.13407415 L28.3712573,29.0982471 L30.014376,29.0982471 L30.014376,9.13407415 L28.3712573,9.13407415 Z M26.571117,30.3768514 L9.0071311,20.2153117 L8.18837569,21.6341139 L25.7523615,31.767614 L26.571117,30.3768514 Z M9.18658434,18.0394412 L26.571117,8.02370723 L25.7467536,6.60490505 L8.3958685,16.5701678 L9.18658434,18.0394412 Z" id="Triangle-3-Copy"></path>
            <path d="M27.0421817,9.17332955 C24.6942782,7.81158081 23.8934121,4.80520885 25.252727,2.45589555 C26.6120407,0.106582232 29.6175817,-0.697399789 31.9683019,0.659479041 C34.3190233,2.01635787 35.1261194,5.02106323 33.7716782,7.37318924 C33.1205217,8.50699047 32.0442483,9.33443747 30.7811754,9.67230935 C29.5181037,10.0101813 28.1724491,9.83059985 27.0421817,9.17332955 L27.0421817,9.17332955 Z M27.8609371,7.75452737 C29.4274186,8.65417729 31.4265443,8.11555283 32.3290131,6.55069355 C33.2314806,4.98583429 32.6964563,2.98574243 31.1332249,2.08045808 C29.5699922,1.17517373 27.5689407,1.70659666 26.6608436,3.26819637 C26.2226629,4.0217083 26.1029428,4.91881075 26.3281898,5.76085911 C26.553438,6.60290749 27.1050694,7.3204232 27.8609371,7.75452737 L27.8609371,7.75452737 Z" id="Oval-2-Copy-5"></path>
            <path d="M2.45147993,22.9968369 C0.103576441,21.6350881 -0.697289722,18.6287163 0.662025237,16.2794029 C2.02133892,13.9300896 5.0268799,13.1261076 7.37760009,14.4829864 C9.72832155,15.8398652 10.5354176,18.8445706 9.18097642,21.1966966 C8.53089432,22.3316475 7.45460057,23.1600944 6.19108152,23.4980859 C4.9275612,23.8360775 3.5813917,23.6556395 2.45147993,22.9968369 L2.45147993,22.9968369 Z M3.27023533,21.5780348 C4.83671682,22.4776847 6.83584248,21.9390603 7.7383113,20.374201 C8.64077884,18.8093417 8.10575455,16.8092498 6.5425231,15.9039655 C4.97929038,14.9986811 2.97823891,15.5301041 2.07014179,17.0917038 C1.63042782,17.8448587 1.50985003,18.7424779 1.73521679,19.5849741 C1.96058482,20.4274703 2.51321668,21.1450057 3.27023533,21.5780348 L3.27023533,21.5780348 Z" id="Oval-2-Copy-6"></path>
            <path d="M27.350617,37.3306645 C25.003259,35.9674449 24.2042179,32.9602019 25.56533,30.6116214 C26.926442,28.2630409 29.9329669,27.461301 32.2827682,28.8203046 C34.6325694,30.1793082 35.4370081,33.185112 34.0801135,35.5361321 C33.4290882,36.6701319 32.352379,37.4973874 31.0889402,37.8343042 C29.8255015,38.1712212 28.4798456,37.9899298 27.350617,37.3306645 L27.350617,37.3306645 Z M28.1974119,35.9118623 C29.7638934,36.8115122 31.7630191,36.2728878 32.6654879,34.7080285 C33.5679554,33.1431693 33.0329312,31.1430774 31.4696997,30.237793 C29.906467,29.3325086 27.9054155,29.8639316 26.9973184,31.4255313 C26.5606633,32.1793966 26.4417946,33.0759859 26.6669231,33.91759 C26.8920528,34.7591941 27.44269,35.4766905 28.1974119,35.9118623 Z" id="Oval-2-Copy-7"></path>
            <path d="M7.59393683,30.73015 C8.21589398,30.6243378 8.85537713,30.7165332 9.42211671,30.9937219 C9.42474096,30.9826596 9.42474096,30.9711368 9.42211671,30.9600745 C9.47182067,30.6875356 9.63761864,30.4500968 9.87635773,30.3095565 C9.57860427,29.9683658 9.45266455,29.5100301 9.53427499,29.0645996 C9.598831,28.6999291 9.7992247,28.3732872 10.0950664,28.1505097 L9.50062751,27.0289269 C9.43296038,26.8984783 9.47990499,26.7378787 9.60717787,26.6644125 C9.73742549,26.5981922 9.89671828,26.647971 9.96608435,26.7765708 L10.5661311,27.8981536 C10.7709411,27.8344564 10.9870127,27.8153351 11.1998254,27.8420744 L11.4633973,26.6924521 C11.4968065,26.5490642 11.6392169,26.459121 11.7830484,26.4905672 C11.9241639,26.5264893 12.0111286,26.6681181 11.9793254,26.8102183 L11.7101455,27.999096 C12.28058,28.2973827 12.596526,28.9268823 12.4948252,29.5625138 C12.3931231,30.1981453 11.8965386,30.6976399 11.2615124,30.8030529 C11.3186622,30.9628998 11.334103,31.1346808 11.3063757,31.3021572 C11.2740958,31.4682998 11.1986681,31.6230241 11.0876671,31.7507903 L12.0802678,32.4966428 C12.1361698,32.5389391 12.1729195,32.601762 12.1823918,32.6712192 C12.1918628,32.7406764 12.1732751,32.8110454 12.1307391,32.8667651 C12.0716418,32.947643 11.9710677,32.9869979 11.872775,32.9677076 C11.8314167,32.9616619 11.7925704,32.944181 11.7606167,32.9172364 L10.6109944,32.0592256 C10.4743856,32.0900695 10.3326176,32.0900695 10.1960088,32.0592256 C10.1534728,32.0540353 10.1119156,32.0427015 10.0726347,32.0255781 C9.92077113,32.6302314 9.46326351,33.1111462 8.86693325,33.2929666 L9.08003398,34.2238803 C9.11183722,34.3659805 9.0248725,34.5076092 8.88375699,34.5435313 L8.77720663,34.5435313 C8.67250051,34.5242966 8.58896809,34.4451603 8.56410591,34.3416464 L8.3566131,33.4555961 C8.23521579,33.4890363 8.11150139,33.5134045 7.98649079,33.528499 C6.7247102,33.7079522 5.61434328,33.2200637 5.50779292,32.4461716 C5.40124256,31.6722795 6.32654832,30.9039953 7.59393683,30.73015 Z" id="路径"></path>
            <path d="M47.1802,32.8835889 L46.8437252,31.8797723 L44.8248762,31.8797723 L44.4603618,32.8835889 L43.3387791,32.8835889 L45.4080992,27.1971643 L46.2773259,27.1971643 L48.352254,32.8835889 L47.1802,32.8835889 Z M45.8511244,28.8739305 L45.1333115,30.9376428 L46.5465057,30.9376428 L45.8511244,28.8739305 Z" id="形状"></path>
            <polygon id="路径" points="54.3190742 32.8835889 52.0759087 29.3954665 52.0759087 32.8835889 50.9543259 32.8835889 50.9543259 27.1971643 51.9469267 27.1971643 54.1900922 30.6796788 54.1900922 27.1971643 55.3116749 27.1971643 55.3116749 32.8835889"></polygon>
            <polygon id="路径" points="60.7233117 28.1897651 60.7233117 32.8835889 59.6017289 32.8835889 59.6017289 28.1897651 58.1156318 28.1897651 58.1156318 27.1971643 62.1925851 27.1971643 62.1925851 28.1897651"></polygon>
            <path d="M66.7630348,32.9284522 C66.1809346,32.9475289 65.6174897,32.7217438 65.2096427,32.3059738 C64.9740682,32.0737749 64.8121678,31.7772841 64.7441858,31.4535709 C64.6705527,30.9862663 64.6386487,30.5133366 64.6488513,30.0403766 C64.6386487,29.5674166 64.6705527,29.0944869 64.7441858,28.6271823 C64.8102343,28.302759 64.9724241,28.0057351 65.2096427,27.7747794 C65.6121277,27.3648068 66.1662266,27.1395142 66.7406031,27.152301 C67.8062635,27.0958917 68.7288533,27.8852731 68.8379629,28.9468334 L67.7163801,28.9468334 C67.6515259,28.4774201 67.2481015,28.129227 66.7742506,28.1336859 C66.5036165,28.1170357 66.2405595,28.2268155 66.0620456,28.4309054 C65.8321211,28.6776536 65.7816499,28.9356176 65.7816499,30.0347687 C65.7816499,31.1339198 65.8321211,31.3918838 66.0620456,31.638632 C66.2405595,31.8427218 66.5036165,31.9525017 66.7742506,31.9358515 C67.2526006,31.9492778 67.6650295,31.6019696 67.7332039,31.1283119 L68.8547866,31.1283119 C68.743156,32.1870307 67.826568,32.975837 66.7630348,32.9284522 Z" id="路径"></path>
            <polygon id="路径" points="74.743096 32.8835889 74.743096 30.5058334 72.8195816 30.5058334 72.8195816 32.8835889 71.6979989 32.8835889 71.6979989 27.1971643 72.8195816 27.1971643 72.8195816 29.5188406 74.743096 29.5188406 74.743096 27.1971643 75.8646788 27.1971643 75.8646788 32.8835889"></polygon>
            <path d="M82.353035,32.8835889 L82.0165602,31.8797723 L79.9977112,31.8797723 L79.6556285,32.8835889 L78.4947903,32.8835889 L80.5641105,27.1971643 L81.4333371,27.1971643 L83.5082652,32.8835889 L82.353035,32.8835889 Z M81.0239594,28.8739305 L80.3061465,30.9376428 L81.7193407,30.9376428 L81.0239594,28.8739305 Z" id="形状"></path>
            <polygon id="路径" points="86.127161 32.8835889 86.127161 27.1971643 87.2487437 27.1971643 87.2487437 32.8835889"></polygon>
            <polygon id="路径" points="93.8436503 32.8835889 91.6004848 29.3954665 91.6004848 32.8835889 90.478902 32.8835889 90.478902 27.1971643 91.4715028 27.1971643 93.7146683 30.6796788 93.7146683 27.1971643 94.836251 27.1971643 94.836251 32.8835889"></polygon>
          </g>
        </g>
      </g>
    </g>
  </g>
</svg>